<?xml version="1.0" encoding="utf-8"?>
<!-- Generator: Adobe Illustrator 16.0.0, SVG Export Plug-In . SVG Version: 6.00 Build 0)  -->
<!DOCTYPE svg PUBLIC "-//W3C//DTD SVG 1.1//EN" "http://www.w3.org/Graphics/SVG/1.1/DTD/svg11.dtd">
<svg version="1.1" id="Layer_1" xmlns="http://www.w3.org/2000/svg" xmlns:xlink="http://www.w3.org/1999/xlink" x="0px" y="0px"
	 width="1810px" height="690px" viewBox="0 0 1810 690" enable-background="new 0 0 1810 690" xml:space="preserve">
<g>
	<g>
		<path fill="#282827" d="M93.443,469.783h-82.89v40.849h25.458v124.631H10.554v41.74h82.89c62.463,0,96.803-35.23,96.803-103.613
			C190.246,503.529,157.091,469.783,93.443,469.783z M84.267,635.56h-5.626V510.634h5.626c45.886,0,62.761,15.1,62.761,62.758
			C147.027,617.499,127.191,635.56,84.267,635.56z"/>
		<path fill="#282827" d="M283.766,525.435c-44.106,0-76.672,31.677-76.672,76.674c0,48.845,30.194,79.634,76.968,79.634
			c39.077,0,64.536-18.355,71.639-54.474h-42.035c-3.256,10.953-13.618,16.58-30.787,16.58c-19.907,0-32.235-10.758-34.319-29.604
			h108.328v-7.695C356.885,554.151,330.54,525.435,283.766,525.435z M249.958,582.864c4.117-12.658,16.761-21.314,32.625-21.314
			c17.171,0,29.898,8.588,32.562,21.314H249.958z"/>
		<polygon fill="#282827" points="444.201,637.927 439.76,637.927 406.309,530.171 362.497,530.171 408.085,677.003 
			475.581,677.003 521.171,530.171 477.356,530.171 		"/>
		<polygon fill="#282827" points="616.681,530.171 538.525,530.171 538.525,569.249 575.827,569.249 575.827,637.927 
			526.094,637.927 526.094,677.003 657.734,677.003 657.734,637.927 616.681,637.927 		"/>
		<path fill="#282827" d="M590.924,504.715c15.69,0,27.236-11.84,27.236-27.827c0-15.688-11.546-27.826-27.236-27.826
			c-15.984,0-27.53,11.838-27.53,27.826C563.393,492.875,574.938,504.715,590.924,504.715z"/>
		<path fill="#282827" d="M816.434,589.673c0-42.035-24.57-64.238-68.386-64.238c-38.479,0-66.013,18.65-71.047,50.623h49.438
			c0.891-7.696,8.882-12.727,23.39-12.727c17.043,0,25.346,6.481,25.737,22.199h-39.651c-39.076,0-65.128,18.649-65.128,46.771
			c0,33.746,18.945,49.439,58.616,49.439c23.979,0,42.332-10.363,48.844-28.121h0.592v10.949c0,6.809,5.625,12.436,12.433,12.436
			h40.558V639.7h-15.393L816.434,589.673L816.434,589.673z M733.249,647.696c-15.689,0-21.61-5.035-21.61-15.689
			c0-10.064,8.289-15.693,28.419-15.693h35.467C774.493,637.769,759.247,647.696,733.249,647.696z"/>
		<path fill="#282827" d="M937.306,525.435c-23.36,0-40.089,10.978-45.439,28.42h-0.74v-23.684h-40.853v146.832h40.853v-76.377
			c0-25.461,10.954-39.076,31.083-39.076c17.465,0,27.531,11.25,27.531,31.975v83.479h40.853V584.05
			C990.594,547.933,971.35,525.435,937.306,525.435z"/>
		<polygon fill="#282827" points="1262.764,636.151 1202.375,636.151 1202.375,510.634 1237.307,510.634 1237.307,469.783 
			1131.624,469.783 1131.624,510.634 1159.746,510.634 1159.746,636.151 1131.624,636.151 1131.624,677.003 1305.396,677.003 
			1305.396,602.403 1262.764,602.403 		"/>
		<path fill="#282827" d="M1467.068,589.673c0-42.035-24.569-64.238-68.385-64.238c-38.483,0-66.014,18.65-71.049,50.623h49.438
			c0.888-7.696,8.88-12.727,23.387-12.727c17.039,0,25.348,6.481,25.739,22.199h-39.652c-39.078,0-65.128,18.649-65.128,46.771
			c0,33.746,18.946,49.439,58.613,49.439c23.979,0,42.333-10.363,48.843-28.121h0.596v10.949c0,6.809,5.625,12.436,12.434,12.436
			h40.557V639.7h-15.395v-50.027H1467.068z M1383.882,647.696c-15.689,0-21.607-5.035-21.607-15.689
			c0-10.064,8.288-15.693,28.415-15.693h35.472C1425.128,637.769,1409.883,647.696,1383.882,647.696z"/>
		<path fill="#282827" d="M1592.986,526.026c-23.682,0-39.963,7.696-48.549,23.979h-0.889v-80.222h-41.441v207.22h41.441v-22.496
			h0.979c8.498,18.006,23.256,27.232,48.453,27.232c40.56,0,66.312-29.312,66.312-77.562
			C1659.298,556.519,1632.659,526.026,1592.986,526.026z M1580.852,643.849c-22.501,0-37.302-15.688-37.302-40.258
			c0-24.574,14.801-40.262,37.302-40.262c23.091,0,37.299,15.096,37.299,40.262C1618.15,628.751,1603.943,643.849,1580.852,643.849z
			"/>
		<path fill="#282827" d="M1748.542,585.235c-23.979-1.188-32.562-5.33-32.562-12.437c0-6.512,7.698-11.25,18.944-11.25
			c13.618,0,20.428,4.146,22.203,14.805h41.443c-3.553-33.155-27.529-50.33-64.83-50.33c-33.746,0-58.021,18.062-58.021,45.89
			c0,29.01,21.313,45.291,57.136,46.771c21.907,0.892,28.12,5.623,28.12,15.101c0,7.989-6.81,11.842-21.312,11.842
			c-11.253,0-17.47-4.146-19.834-12.729h-45.888c5.922,32.562,28.125,48.252,63.942,48.252c39.076,0,63.353-17.467,63.353-48.549
			C1801.234,605.661,1781.402,586.714,1748.542,585.235z"/>
	</g>
	<g>
		<g>
			<path fill="#282827" d="M258.477,272.463c31.641-27.624,51.654-68.225,51.654-113.521c0-83.217-67.463-150.684-150.686-150.684
				c-19.883,0-38.847,3.889-56.228,10.887L258.477,272.463z"/>
			<path fill="#282827" d="M60.419,45.422C28.78,73.044,8.764,113.644,8.764,158.942c0,83.223,67.463,150.686,150.687,150.686
				c19.883,0,38.846-3.886,56.228-10.884L60.419,45.422z"/>
		</g>
		<g>
			<polygon fill="#7F7D7E" points="990.777,263.144 990.777,17.229 743.514,17.229 			"/>
			<polygon fill="#7F7D7E" points="707.351,56.284 707.351,300.655 953.062,300.655 			"/>
		</g>
		<g>
			<polygon fill="#033FCB" points="562.103,17.229 441.756,225.672 494.571,317.146 667.734,17.229 			"/>
			<polygon fill="#033FCB" points="504.105,17.229 321.41,17.229 412.756,175.444 			"/>
		</g>
	</g>
</g>
</svg>
