<?xml version="1.0" encoding="utf-8"?>
<!-- Generator: Adobe Illustrator 16.0.0, SVG Export Plug-In . SVG Version: 6.00 Build 0)  -->
<!DOCTYPE svg PUBLIC "-//W3C//DTD SVG 1.1//EN" "http://www.w3.org/Graphics/SVG/1.1/DTD/svg11.dtd">
<svg version="1.1" id="Layer_1" xmlns="http://www.w3.org/2000/svg" xmlns:xlink="http://www.w3.org/1999/xlink" x="0px" y="0px"
	 width="320.006px" height="320.007px" viewBox="80.004 79.993 320.006 320.007"
	 enable-background="new 80.004 79.993 320.006 320.007" xml:space="preserve">
<g>
	<g>
		<path fill="#033FC9" d="M200,159.993h80.002V85.032c-12.783-3.29-26.186-5.039-39.996-5.039c-13.814,0-27.219,1.751-40.006,5.042
			V159.993L200,159.993z"/>
		<rect x="200" y="199.994" fill="#033FC9" width="80.002" height="80"/>
		<path fill="#033FC9" d="M320.002,159.993h58.594c-14.051-24.289-34.303-44.542-58.594-58.593V159.993z"/>
		<path fill="#033FC9" d="M320.002,279.994h74.967c3.291-12.785,5.041-26.188,5.041-39.998c0-13.812-1.752-27.216-5.043-40.002
			h-74.965V279.994z"/>
		<path fill="#033FC9" d="M160,199.994H85.047c-3.291,12.786-5.043,26.189-5.043,40.002c0,13.811,1.75,27.213,5.041,39.998H160
			V199.994z"/>
		<path fill="#033FC9" d="M280.002,319.994H200v74.962c12.787,3.291,26.191,5.042,40.006,5.042c13.811,0,27.213-1.75,39.996-5.039
			V319.994L280.002,319.994z"/>
		<path fill="#033FC9" d="M320.002,319.994v58.598c24.293-14.053,44.545-34.307,58.598-58.598H320.002z"/>
		<path fill="#033FC9" d="M160,159.993v-58.587c-24.285,14.052-44.533,34.302-58.584,58.587H160z"/>
		<path fill="#033FC9" d="M160,319.994h-58.586c14.049,24.287,34.299,44.539,58.586,58.591V319.994z"/>
	</g>
	<polyline fill="#282827" points="320.004,400 320.004,320 400.004,320 	"/>
</g>
</svg>
